<svg t="1562951353760" class="icon" viewBox="0 0 2048 1024" version="1.1" xmlns="http://www.w3.org/2000/svg" p-id="4247" data-darkreader-inline-fill="" width="200" height="200"><path d="M1945.6 25.6c43.52 0 76.8 33.28 76.8 76.8v819.2c0 43.52-33.28 76.8-76.8 76.8H102.4c-43.52 0-76.8-33.28-76.8-76.8V102.4c0-43.52 33.28-76.8 76.8-76.8h1843.2m0-25.6H102.4C46.08 0 0 46.08 0 102.4v819.2c0 56.32 46.08 102.4 102.4 102.4h1843.2c56.32 0 102.4-46.08 102.4-102.4V102.4c0-56.32-46.08-102.4-102.4-102.4z" p-id="4248" fill="#1296db" data-darkreader-inline-fill="" style="--darkreader-inline-fill:#1087c5;"></path><path d="M939.52 432.64H921.6v222.72h-48.64v-222.72h-20.48v-10.24h20.48v-66.56H921.6v66.56h17.92v10.24z m212.48 148.48h-23.04v38.4c0 25.6-15.36 38.4-43.52 38.4-30.72 0-58.88-7.68-81.92-23.04-5.12-2.56-7.68-5.12-7.68-5.12 0-2.56 5.12 0 10.24 0 12.8 2.56 30.72 2.56 48.64 2.56 15.36 0 23.04-7.68 20.48-25.6v-25.6h-145.92v-10.24H1075.2v-17.92h15.36v-28.16h-23.04v35.84h-48.64v-35.84h-23.04v35.84H947.2v-138.24h48.64v10.24c2.56-7.68 10.24-12.8 23.04-12.8v-17.92h-79.36v-10.24h79.36V358.4h48.64v33.28h28.16c-10.24-2.56-15.36-10.24-17.92-25.6h38.4c5.12 12.8 12.8 23.04 17.92 25.6h17.92v10.24h-81.92v17.92H1100.8c28.16 0 43.52 10.24 40.96 33.28v104.96h-12.8v10.24h23.04v12.8z m-192 5.12h58.88c10.24 17.92 23.04 28.16 40.96 35.84-30.72 0-51.2 0-61.44-2.56-10.24 0-17.92-5.12-20.48-10.24-2.56-2.56-5.12-5.12-7.68-10.24-7.68-7.68-10.24-10.24-10.24-12.8z m35.84-148.48v28.16h23.04v-35.84h-5.12c-7.68 0-15.36 2.56-17.92 7.68z m0 38.4v33.28h23.04v-30.72l-23.04-2.56z m76.8-46.08h-5.12v35.84h23.04v-17.92c2.56-12.8-5.12-20.48-17.92-17.92z m-5.12 46.08v33.28h23.04v-30.72l-23.04-2.56z m161.28-25.6h-51.2v-64h51.2v28.16c5.12-17.92 20.48-28.16 48.64-25.6h15.36v-28.16h58.88v28.16h61.44c38.4 0 56.32 10.24 53.76 30.72v10.24c0 7.68 0 15.36-2.56 23.04h-35.84c0 7.68-2.56 12.8-7.68 15.36-17.92 12.8-35.84 25.6-56.32 35.84 7.68 5.12 17.92 10.24 30.72 15.36 2.56 2.56 5.12 2.56 5.12 2.56 23.04 10.24 46.08 17.92 74.24 25.6-51.2 10.24-89.6 7.68-115.2-5.12-12.8-5.12-23.04-10.24-33.28-17.92-5.12 2.56-10.24 5.12-17.92 10.24-7.68 5.12-12.8 7.68-17.92 7.68-20.48 10.24-61.44 15.36-120.32 10.24 33.28-7.68 64-17.92 92.16-33.28 10.24-5.12 17.92-10.24 28.16-12.8-12.8-7.68-25.6-15.36-38.4-20.48-10.24 12.8-33.28 17.92-69.12 15.36 17.92-10.24 40.96-38.4 69.12-81.92h48.64c-2.56 2.56-2.56 5.12-5.12 7.68-2.56 2.56-5.12 7.68-10.24 15.36 7.68-5.12 15.36-7.68 25.6-7.68h74.24c12.8 0 23.04 2.56 30.72 5.12v-12.8c0-12.8-7.68-17.92-23.04-17.92h-120.32c-23.04 0-38.4 7.68-46.08 20.48l2.56 20.48z m30.72 199.68H1203.2v-94.72h56.32v23.04c2.56-15.36 12.8-23.04 33.28-23.04h102.4c33.28 0 48.64 12.8 51.2 38.4v23.04c0 23.04-15.36 35.84-48.64 33.28h-104.96c-20.48 0-30.72-7.68-33.28-23.04v23.04z m0-61.44v33.28c2.56 10.24 12.8 15.36 28.16 15.36h81.92c15.36 0 20.48-5.12 20.48-15.36v-30.72c0-15.36-7.68-23.04-25.6-23.04h-74.24c-15.36 0-25.6 5.12-30.72 20.48z m97.28-148.48h-48.64c-12.8 0-25.6 5.12-33.28 15.36l-7.68 7.68h25.6c5.12 5.12 15.36 7.68 25.6 12.8 5.12 2.56 7.68 2.56 10.24 2.56 2.56-2.56 7.68-2.56 10.24-5.12 7.68-5.12 12.8-7.68 17.92-10.24 12.8-7.68 20.48-12.8 17.92-17.92 0-2.56-5.12-5.12-17.92-5.12z m192 212.48h-48.64v-281.6h48.64v17.92c5.12-10.24 15.36-17.92 33.28-17.92h148.48c38.4 0 56.32 15.36 56.32 43.52v197.12c0 28.16-15.36 43.52-46.08 40.96h-161.28c-17.92 0-25.6-5.12-30.72-17.92v17.92z m0-253.44v222.72c2.56 12.8 10.24 17.92 20.48 15.36h143.36c17.92 0 28.16-10.24 28.16-30.72V409.6c0-17.92-10.24-28.16-28.16-28.16h-135.68c-12.8 2.56-23.04 7.68-28.16 17.92z m102.4 171.52v-81.92h-23.04c0 28.16-2.56 58.88-7.68 87.04 0 28.16-23.04 40.96-69.12 35.84 15.36-12.8 23.04-28.16 23.04-46.08 0-10.24 2.56-25.6 5.12-51.2 0-10.24 0-17.92 2.56-28.16h-25.6v-12.8h174.08v12.8h-33.28v76.8c0 12.8 2.56 20.48 10.24 17.92 7.68 2.56 15.36-10.24 20.48-40.96 5.12 46.08-2.56 66.56-25.6 64H1689.6c-28.16 5.12-40.96-7.68-38.4-33.28z m61.44-138.24h-140.8v-12.8h140.8v12.8zM673.28 332.8c-97.28-97.28-253.44-97.28-350.72 0s-97.28 253.44 0 348.16c97.28 97.28 253.44 97.28 348.16 0 99.84-94.72 99.84-253.44 2.56-348.16zM435.2 616.96c-10.24 10.24-25.6 10.24-33.28 0-10.24-10.24-10.24-25.6 0-33.28 10.24-10.24 25.6-10.24 33.28 0s7.68 25.6 0 33.28z m104.96 2.56c0 5.12-2.56 7.68-5.12 10.24-7.68 7.68-20.48 7.68-28.16 0-5.12-5.12-7.68-10.24-5.12-17.92 0-2.56 0-10.24-2.56-23.04-2.56-17.92-12.8-33.28-25.6-46.08s-28.16-20.48-46.08-25.6h-20.48c-5.12 2.56-12.8 0-17.92-5.12-7.68-7.68-7.68-20.48 0-28.16 2.56-2.56 7.68-5.12 10.24-5.12 2.56 0 56.32-7.68 102.4 38.4 46.08 43.52 38.4 99.84 38.4 102.4z m89.6 2.56c-2.56 10.24-12.8 17.92-23.04 15.36-5.12 0-7.68-2.56-10.24-5.12-5.12-5.12-7.68-10.24-5.12-17.92 0 0 2.56-20.48-2.56-46.08-7.68-35.84-23.04-66.56-48.64-92.16s-56.32-40.96-92.16-48.64c-25.6-5.12-46.08-2.56-46.08-2.56-7.68 0-12.8-2.56-17.92-5.12-2.56-2.56-5.12-7.68-5.12-10.24-2.56-10.24 5.12-20.48 17.92-20.48 0 0 25.6-2.56 56.32 2.56 17.92 2.56 38.4 10.24 53.76 17.92 20.48 10.24 40.96 25.6 58.88 43.52 17.92 17.92 30.72 38.4 43.52 58.88 7.68 17.92 15.36 35.84 17.92 53.76 7.68 33.28 2.56 56.32 2.56 56.32z" p-id="4249" fill="#1296db" data-darkreader-inline-fill="" style="--darkreader-inline-fill:#1087c5;"></path></svg>